<svg width="137" height="26" viewBox="0 0 212 40" fill="none" xmlns="http://www.w3.org/2000/svg">
<g clip-path="url(#clip0_341_2962)">
<path fill-rule="evenodd" clip-rule="evenodd" d="M14.5974 13.6845V9.6856C11.9763 9.6856 9.71055 8.70555 7.21981 10.2862C5.4152 11.5261 4.53853 13.6849 5.22481 15.8229C5.65868 17.1748 6.45314 18.5115 7.63433 19.3333C9.35955 20.5335 13.0952 23.3537 14.2352 24.9681C14.2352 24.9681 14.718 25.8018 14.7678 26.0562L16.7662 24.9081C16.7662 24.9081 15.9111 22.4669 12.3181 20.1636C10.9045 19.1515 7.75607 17.0033 7.06995 15.5231C5.26385 11.6267 9.88853 9.23999 12.7551 10.7818C13.7639 11.3241 14.1205 12.1232 14.15 13.2254V13.6564L14.5974 13.6845Z" fill="#FDFDFD"/>
<path fill-rule="evenodd" clip-rule="evenodd" d="M2.98814 25.8016C-4.90883 14.0916 3.75316 -0.966096 18.354 7.44563L19.0782 11.9535H18.6807C18.6807 11.9535 17.9635 7.02896 12.3255 6.36485C12.3255 6.36485 6.28987 5.55946 3.8615 9.58668C3.8615 9.58668 -0.682955 14.278 2.89584 22.6717C2.89584 22.6717 5.43785 29.5251 14.6119 26.6849C14.6119 26.6849 17.1965 25.837 17.8783 24.537L17.9208 19.0825C17.9208 19.0825 17.8214 17.8532 16.9125 17.726H15.6912V17.288H22.0109V17.6977H20.8605C20.8605 17.6977 19.9942 17.7966 19.98 18.8281V24.3675C19.98 24.3675 18.7019 25.9361 17.367 26.6849C17.367 26.6849 18.219 31.136 13.9586 33.6938C13.9586 33.6938 10.8203 35.9547 6.84383 34.5274C6.84383 34.5274 2.7822 33.4817 2.4413 28.6632C2.4413 28.6632 2.51226 26.6214 2.98814 25.8016ZM3.5416 26.2894C3.5416 26.2894 8.08606 29.9633 15.2862 27.6036C15.2862 27.6036 16.1524 33.6374 8.9523 33.8775C8.9523 33.8775 4.09555 33.9482 3.34278 28.734C3.34278 28.734 3.28604 26.7274 3.5416 26.2894Z" fill="#FDFDFD"/>
<path d="M46.6467 16.3C46.1134 15.0733 45.2956 14.1133 44.1934 13.42C43.1089 12.7089 41.8289 12.3533 40.3534 12.3533C38.9667 12.3533 37.7222 12.6733 36.62 13.3133C35.5178 13.9533 34.6467 14.8689 34.0067 16.06C33.3667 17.2333 33.0467 18.6022 33.0467 20.1667C33.0467 21.7311 33.3667 23.1089 34.0067 24.3C34.6467 25.4911 35.5178 26.4067 36.62 27.0467C37.7222 27.6867 38.9667 28.0067 40.3534 28.0067C41.6511 28.0067 42.8156 27.7311 43.8467 27.18C44.8956 26.6111 45.7311 25.8111 46.3534 24.78C46.9934 23.7311 47.3578 22.5133 47.4467 21.1267H39.6067V19.6067H49.42V20.9667C49.3311 22.6022 48.8867 24.0867 48.0867 25.42C47.2867 26.7356 46.2111 27.7756 44.86 28.54C43.5267 29.3044 42.0245 29.6867 40.3534 29.6867C38.6289 29.6867 37.0645 29.2867 35.66 28.4867C34.2556 27.6689 33.1445 26.54 32.3267 25.1C31.5267 23.6422 31.1267 21.9978 31.1267 20.1667C31.1267 18.3356 31.5267 16.7 32.3267 15.26C33.1445 13.8022 34.2556 12.6733 35.66 11.8733C37.0645 11.0556 38.6289 10.6467 40.3534 10.6467C42.3445 10.6467 44.0867 11.1444 45.58 12.14C47.0734 13.1356 48.1578 14.5222 48.8334 16.3H46.6467ZM54.7061 17.5267C55.1149 16.62 55.7372 15.9178 56.5727 15.42C57.4261 14.9222 58.4661 14.6733 59.6927 14.6733V16.62H59.1861C57.8349 16.62 56.7505 16.9844 55.9327 17.7133C55.1149 18.4422 54.7061 19.66 54.7061 21.3667V29.5H52.8394V14.94H54.7061V17.5267ZM61.6475 22.1933C61.6475 20.7 61.9409 19.3933 62.5275 18.2733C63.132 17.1356 63.9586 16.2644 65.0075 15.66C66.0742 15.0378 67.2742 14.7267 68.6075 14.7267C69.9942 14.7267 71.1853 15.0467 72.1809 15.6867C73.1942 16.3267 73.9231 17.1444 74.3675 18.14V14.94H76.2342V29.5H74.3675V26.2733C73.9053 27.2689 73.1675 28.0956 72.1542 28.7533C71.1586 29.3933 69.9675 29.7133 68.5809 29.7133C67.2653 29.7133 66.0742 29.4022 65.0075 28.78C63.9586 28.1578 63.132 27.2778 62.5275 26.14C61.9409 25.0022 61.6475 23.6867 61.6475 22.1933ZM74.3675 22.22C74.3675 21.0467 74.1275 20.0156 73.6475 19.1267C73.1675 18.2378 72.5097 17.5533 71.6742 17.0733C70.8564 16.5933 69.9497 16.3533 68.9542 16.3533C67.9231 16.3533 66.9986 16.5844 66.1809 17.0467C65.3631 17.5089 64.7142 18.1844 64.2342 19.0733C63.772 19.9444 63.5409 20.9844 63.5409 22.1933C63.5409 23.3844 63.772 24.4333 64.2342 25.34C64.7142 26.2289 65.3631 26.9133 66.1809 27.3933C66.9986 27.8556 67.9231 28.0867 68.9542 28.0867C69.9497 28.0867 70.8564 27.8467 71.6742 27.3667C72.5097 26.8867 73.1675 26.2022 73.6475 25.3133C74.1275 24.4244 74.3675 23.3933 74.3675 22.22ZM87.429 14.6733C88.5312 14.6733 89.5179 14.9044 90.389 15.3667C91.2779 15.8289 91.9712 16.54 92.469 17.5C92.9845 18.4422 93.2423 19.5978 93.2423 20.9667V29.5H91.4023V21.18C91.4023 19.5978 91.0023 18.3889 90.2023 17.5533C89.4201 16.7178 88.3445 16.3 86.9756 16.3C85.5712 16.3 84.4512 16.7444 83.6156 17.6333C82.7801 18.5222 82.3623 19.8289 82.3623 21.5533V29.5H80.4956V9.76667H82.3623V17.42C82.8245 16.5489 83.5001 15.8733 84.389 15.3933C85.2956 14.9133 86.309 14.6733 87.429 14.6733ZM98.304 12.1933C97.9306 12.1933 97.6106 12.06 97.344 11.7933C97.0773 11.5267 96.944 11.1978 96.944 10.8067C96.944 10.4156 97.0773 10.0956 97.344 9.84667C97.6106 9.58 97.9306 9.44667 98.304 9.44667C98.6773 9.44667 98.9973 9.58 99.264 9.84667C99.5306 10.0956 99.664 10.4156 99.664 10.8067C99.664 11.1978 99.5306 11.5267 99.264 11.7933C98.9973 12.06 98.6773 12.1933 98.304 12.1933ZM99.2373 14.94V29.5H97.3706V14.94H99.2373ZM105.331 9.76667V29.5H103.464V9.76667H105.331ZM122.529 29.6867C121.303 29.6867 120.218 29.4733 119.276 29.0467C118.351 28.62 117.623 28.0244 117.089 27.26C116.556 26.4956 116.271 25.6422 116.236 24.7H118.209C118.298 25.6067 118.698 26.4067 119.409 27.1C120.12 27.7756 121.16 28.1133 122.529 28.1133C123.791 28.1133 124.787 27.7933 125.516 27.1533C126.263 26.4956 126.636 25.6689 126.636 24.6733C126.636 23.8733 126.431 23.2333 126.023 22.7533C125.614 22.2556 125.107 21.8911 124.503 21.66C123.898 21.4111 123.063 21.1444 121.996 20.86C120.751 20.5222 119.765 20.1933 119.036 19.8733C118.307 19.5533 117.685 19.0556 117.169 18.38C116.654 17.7044 116.396 16.7889 116.396 15.6333C116.396 14.6733 116.645 13.82 117.143 13.0733C117.64 12.3089 118.343 11.7133 119.249 11.2867C120.156 10.86 121.196 10.6467 122.369 10.6467C124.094 10.6467 125.48 11.0733 126.529 11.9267C127.596 12.7622 128.209 13.8467 128.369 15.18H126.343C126.218 14.4156 125.8 13.74 125.089 13.1533C124.378 12.5489 123.418 12.2467 122.209 12.2467C121.089 12.2467 120.156 12.5489 119.409 13.1533C118.663 13.74 118.289 14.5489 118.289 15.58C118.289 16.3622 118.494 16.9933 118.903 17.4733C119.311 17.9533 119.818 18.3178 120.423 18.5667C121.045 18.8156 121.88 19.0822 122.929 19.3667C124.138 19.7044 125.116 20.0422 125.863 20.38C126.609 20.7 127.24 21.1978 127.756 21.8733C128.271 22.5489 128.529 23.4556 128.529 24.5933C128.529 25.4644 128.298 26.2911 127.836 27.0733C127.374 27.8556 126.689 28.4867 125.783 28.9667C124.876 29.4467 123.791 29.6867 122.529 29.6867ZM134.563 16.5133V25.5533C134.563 26.4422 134.732 27.0556 135.07 27.3933C135.407 27.7311 136.003 27.9 136.856 27.9H138.563V29.5H136.563C135.247 29.5 134.27 29.1978 133.63 28.5933C132.99 27.9711 132.67 26.9578 132.67 25.5533V16.5133H130.643V14.94H132.67V11.2867H134.563V14.94H138.563V16.5133H134.563ZM154.255 14.94V29.5H152.388V26.94C151.961 27.8467 151.304 28.54 150.415 29.02C149.526 29.5 148.53 29.74 147.428 29.74C145.686 29.74 144.264 29.2067 143.161 28.14C142.059 27.0556 141.508 25.4911 141.508 23.4467V14.94H143.348V23.2333C143.348 24.8156 143.739 26.0244 144.521 26.86C145.321 27.6956 146.406 28.1133 147.775 28.1133C149.179 28.1133 150.299 27.6689 151.135 26.78C151.97 25.8911 152.388 24.5844 152.388 22.86V14.94H154.255ZM157.663 22.1933C157.663 20.7 157.965 19.3933 158.57 18.2733C159.174 17.1356 160.001 16.2644 161.05 15.66C162.116 15.0378 163.316 14.7267 164.65 14.7267C165.93 14.7267 167.085 15.0378 168.116 15.66C169.148 16.2822 169.903 17.0911 170.383 18.0867V9.76667H172.25V29.5H170.383V26.2467C169.939 27.26 169.21 28.0956 168.196 28.7533C167.183 29.3933 165.992 29.7133 164.623 29.7133C163.29 29.7133 162.09 29.4022 161.023 28.78C159.974 28.1578 159.148 27.2778 158.543 26.14C157.956 25.0022 157.663 23.6867 157.663 22.1933ZM170.383 22.22C170.383 21.0467 170.143 20.0156 169.663 19.1267C169.183 18.2378 168.525 17.5533 167.69 17.0733C166.872 16.5933 165.965 16.3533 164.97 16.3533C163.939 16.3533 163.014 16.5844 162.196 17.0467C161.379 17.5089 160.73 18.1844 160.25 19.0733C159.788 19.9444 159.556 20.9844 159.556 22.1933C159.556 23.3844 159.788 24.4333 160.25 25.34C160.73 26.2289 161.379 26.9133 162.196 27.3933C163.014 27.8556 163.939 28.0867 164.97 28.0867C165.965 28.0867 166.872 27.8467 167.69 27.3667C168.525 26.8867 169.183 26.2022 169.663 25.3133C170.143 24.4244 170.383 23.3933 170.383 22.22ZM177.445 12.1933C177.071 12.1933 176.751 12.06 176.485 11.7933C176.218 11.5267 176.085 11.1978 176.085 10.8067C176.085 10.4156 176.218 10.0956 176.485 9.84667C176.751 9.58 177.071 9.44667 177.445 9.44667C177.818 9.44667 178.138 9.58 178.405 9.84667C178.671 10.0956 178.805 10.4156 178.805 10.8067C178.805 11.1978 178.671 11.5267 178.405 11.7933C178.138 12.06 177.818 12.1933 177.445 12.1933ZM178.378 14.94V29.5H176.511V14.94H178.378ZM188.978 29.7133C187.609 29.7133 186.374 29.4111 185.272 28.8067C184.187 28.1844 183.325 27.3133 182.685 26.1933C182.063 25.0556 181.752 23.7311 181.752 22.22C181.752 20.7089 182.072 19.3933 182.712 18.2733C183.352 17.1356 184.223 16.2644 185.325 15.66C186.427 15.0378 187.663 14.7267 189.032 14.7267C190.401 14.7267 191.636 15.0378 192.738 15.66C193.858 16.2644 194.729 17.1356 195.352 18.2733C195.992 19.3933 196.312 20.7089 196.312 22.22C196.312 23.7133 195.992 25.0289 195.352 26.1667C194.712 27.3044 193.832 28.1844 192.712 28.8067C191.592 29.4111 190.347 29.7133 188.978 29.7133ZM188.978 28.0867C189.938 28.0867 190.827 27.8733 191.645 27.4467C192.463 27.0022 193.121 26.3444 193.618 25.4733C194.134 24.5844 194.392 23.5 194.392 22.22C194.392 20.94 194.143 19.8644 193.645 18.9933C193.147 18.1044 192.489 17.4467 191.672 17.02C190.854 16.5756 189.965 16.3533 189.005 16.3533C188.045 16.3533 187.156 16.5756 186.338 17.02C185.521 17.4467 184.863 18.1044 184.365 18.9933C183.885 19.8644 183.645 20.94 183.645 22.22C183.645 23.5 183.885 24.5844 184.365 25.4733C184.863 26.3444 185.512 27.0022 186.312 27.4467C187.129 27.8733 188.018 28.0867 188.978 28.0867ZM204.728 29.7133C203.057 29.7133 201.688 29.3311 200.621 28.5667C199.572 27.7844 198.985 26.7267 198.861 25.3933H200.781C200.87 26.2111 201.252 26.8778 201.928 27.3933C202.621 27.8911 203.545 28.14 204.701 28.14C205.714 28.14 206.505 27.9 207.074 27.42C207.661 26.94 207.954 26.3444 207.954 25.6333C207.954 25.1356 207.794 24.7267 207.474 24.4067C207.154 24.0867 206.745 23.8378 206.248 23.66C205.768 23.4644 205.11 23.26 204.274 23.0467C203.19 22.7622 202.31 22.4778 201.634 22.1933C200.959 21.9089 200.381 21.4911 199.901 20.94C199.439 20.3711 199.208 19.6156 199.208 18.6733C199.208 17.9622 199.421 17.3044 199.848 16.7C200.274 16.0956 200.879 15.6156 201.661 15.26C202.443 14.9044 203.332 14.7267 204.328 14.7267C205.892 14.7267 207.154 15.1267 208.114 15.9267C209.074 16.7089 209.59 17.7933 209.661 19.18H207.794C207.741 18.3267 207.403 17.6422 206.781 17.1267C206.177 16.5933 205.341 16.3267 204.274 16.3267C203.332 16.3267 202.568 16.5489 201.981 16.9933C201.394 17.4378 201.101 17.9889 201.101 18.6467C201.101 19.2156 201.27 19.6867 201.608 20.06C201.963 20.4156 202.399 20.7 202.914 20.9133C203.43 21.1089 204.123 21.3311 204.994 21.58C206.043 21.8644 206.879 22.14 207.501 22.4067C208.123 22.6733 208.657 23.0644 209.101 23.58C209.545 24.0956 209.777 24.78 209.794 25.6333C209.794 26.4156 209.581 27.1178 209.154 27.74C208.728 28.3444 208.132 28.8244 207.368 29.18C206.603 29.5356 205.723 29.7133 204.728 29.7133Z" fill="#FDFDFD"/>
</g>
<defs>
<clipPath id="clip0_341_2962">
<rect width="211.511" height="40" fill="white"/>
</clipPath>
</defs>
</svg>
